<?xml version="1.0" encoding="UTF-8"?>
<!DOCTYPE svg PUBLIC "-//W3C//DTD SVG 1.1//EN" "http://www.w3.org/Graphics/SVG/1.1/DTD/svg11.dtd">
<!-- Creator: CorelDRAW Home & Student 2014 -->
<svg xmlns="http://www.w3.org/2000/svg" xml:space="preserve" width="100mm" height="100mm" version="1.1" style="shape-rendering:geometricPrecision; text-rendering:geometricPrecision; image-rendering:optimizeQuality; fill-rule:evenodd; clip-rule:evenodd"
viewBox="0 0 10000 10000"
 xmlns:xlink="http://www.w3.org/1999/xlink">
 <defs>
  <style type="text/css">
   <![CDATA[
    .str0 {stroke:#6699FF;stroke-width:7.62;stroke-linecap:round;stroke-linejoin:round}
    .fil1 {fill:white}
    .fil0 {fill:url(#id0)}
   ]]>
  </style>
  <radialGradient id="id0" gradientUnits="objectBoundingBox" cx="49.9999%" cy="50%" r="50.0001%" fx="49.9999%" fy="50%">
   <stop offset="0" style="stop-color:#256DFF"/>
   <stop offset="1" style="stop-color:#6699FF"/>
  </radialGradient>
 </defs>
 <g id="Background_x0020_blue">
  <metadata id="CorelCorpID_0Corel-Layer"/>
  <rect class="fil0 str0" width="10000" height="10000" rx="2000" ry="2000"/>
 </g>
 <g id="Ebene_x0020_1">
  <metadata id="CorelCorpID_1Corel-Layer"/>
  <g id="_677768248">
   <path class="fil1" d="M3174 8494l0 -32c0,-120 237,-225 342,-263 184,-66 300,-86 483,-123 65,-13 383,-59 466,-62 82,-4 187,-19 283,-20l141 -9c25,0 52,1 77,1l612 5c18,2 31,2 54,2l270 21c112,9 297,35 410,54 131,22 256,49 381,84 138,39 383,125 460,238 206,305 -674,467 -832,495 -67,11 -131,20 -200,30 -65,9 -141,19 -210,23 -127,9 -310,29 -437,28l-108 5c-38,0 -79,-4 -116,1 -64,10 -122,-1 -167,-2 -20,0 -40,1 -61,1 -77,0 -151,-2 -222,-8l-165 -9c-25,1 -31,-3 -57,-4 -73,-1 -348,-36 -418,-46 -247,-36 -785,-132 -949,-330 -14,-17 -37,-51 -37,-80zm4526 -8211l86 0c51,3 100,11 142,24 49,16 84,31 126,52 79,41 135,107 202,158 11,8 15,14 25,23 31,29 58,29 121,101 12,14 28,36 37,52 28,51 79,103 115,151 13,18 24,34 37,52 49,70 97,146 136,224 21,42 39,81 57,124 55,124 102,284 117,420 3,27 8,52 9,80 1,20 3,21 4,40 0,15 -1,31 0,45 3,55 4,109 0,169 -21,253 -88,501 -193,708 -5,12 -9,18 -14,30 -6,13 -7,19 -14,31l-94 172c-81,141 -180,268 -277,398 -38,50 -82,99 -124,146l-83 95c-27,34 -236,241 -243,245 4,50 17,98 26,149l228 1329c17,100 34,194 50,293l76 445c35,213 3,396 -86,589 -7,14 -22,35 -23,50 43,11 247,179 273,202l65 57c20,20 38,38 58,58 81,82 151,168 211,266 167,273 213,552 117,863 -26,84 -67,163 -111,236 -51,84 -194,270 -276,334 -18,13 -27,27 -44,41 -12,9 -13,11 -24,21 -91,85 -269,206 -382,271l-112 62c-123,74 -339,164 -479,220 -43,17 -83,29 -127,46 -65,26 -130,43 -197,65l-201 58c-373,92 -641,142 -1035,184 -312,33 -573,34 -882,35l-25 0 -163 -8c-15,-1 -31,1 -45,0 -39,-1 -81,-8 -121,-8 -78,0 -159,-15 -238,-20 -177,-12 -431,-52 -607,-87 -99,-20 -193,-40 -286,-62 -137,-32 -273,-70 -406,-114 -128,-43 -256,-89 -381,-140 -22,-9 -41,-16 -63,-26 -19,-10 -39,-19 -57,-27 -41,-18 -79,-35 -119,-55 -77,-39 -154,-80 -225,-123 -131,-79 -188,-121 -309,-211l-228 -208c-10,-10 -11,-14 -21,-24l-60 -69c-120,-151 -222,-331 -254,-525 -35,-216 -8,-386 74,-585 20,-50 55,-110 83,-155 96,-153 226,-289 365,-402 77,-62 155,-120 237,-175 -33,-62 -61,-125 -84,-198 -32,-101 -41,-194 -41,-306 0,-99 55,-360 74,-475l160 -938c12,-73 66,-401 81,-468 -29,6 -307,145 -344,164l-343 165c-21,10 -36,18 -57,29l-169 80c-72,35 -157,81 -228,112l-569 274c-162,82 -365,9 -365,-122 0,-63 49,-99 82,-132 11,-11 14,-18 24,-29 9,-9 17,-16 27,-26l547 -563c11,-11 14,-17 24,-28 32,-35 76,-70 104,-106l314 -324c36,-36 66,-71 102,-107l105 -109c19,-19 34,-34 53,-53l129 -133c12,-11 14,-16 24,-28 28,-33 83,-74 104,-106 -4,-15 -14,-25 -23,-37 -60,-78 -116,-162 -166,-246 -199,-330 -340,-667 -340,-1102 0,-215 52,-419 113,-573 75,-187 168,-337 285,-486 38,-48 75,-94 118,-137 29,-29 56,-55 85,-85l66 -62c48,-47 164,-138 219,-165 113,-57 204,-70 333,-70 145,0 272,62 384,141 42,30 80,65 120,98l67 63c17,17 27,27 42,46 8,9 14,13 22,22 8,9 9,13 18,22 15,16 27,32 41,49 13,16 25,30 38,47l73 100c155,232 281,482 391,739 10,21 16,37 25,60 15,37 24,102 71,102 58,0 120,-9 174,-15 131,-15 260,-23 391,-33l122 -8c19,-1 20,-4 40,-4l161 -8c28,-1 57,2 84,-1 47,-7 116,2 165,-5 32,-5 346,-6 380,-1 46,6 104,-1 154,3 25,2 46,4 77,4 32,0 47,4 77,4l302 16c105,-1 261,17 368,32 27,3 40,8 68,8 6,-22 20,-37 30,-59l50 -119c59,-152 89,-211 161,-356 6,-11 9,-18 15,-30 82,-152 203,-365 317,-494l167 -176c28,-28 63,-55 95,-78 17,-13 33,-23 50,-35 34,-23 70,-44 107,-63 43,-21 69,-34 121,-49 42,-12 90,-19 140,-22zm-1866 6677c0,-43 9,-79 22,-111 35,-88 135,-171 240,-171 92,0 150,14 217,81 180,180 45,480 -197,480 -41,0 -84,-12 -113,-25 -97,-43 -169,-142 -169,-254zm-1938 0c0,-184 185,-330 372,-267 41,14 68,32 99,58 27,23 55,62 68,94 22,55 33,109 18,175 -61,273 -441,301 -540,32 -8,-20 -17,-66 -17,-92zm-1380 -500c-27,-52 -49,-181 -49,-247 0,-94 69,-449 85,-549 30,-180 63,-360 93,-541l69 -403c9,-45 15,-94 23,-138 26,-129 45,-275 70,-406l18 -104c4,-33 -6,-19 63,-54l322 -154c18,-9 35,-18 54,-27 36,-19 70,-33 106,-51l158 -77c19,-10 35,-16 55,-26 262,-131 539,-257 802,-389 26,-13 153,-75 165,-76 21,89 85,305 114,403 9,33 18,67 28,101 11,36 16,63 37,92 41,53 122,78 205,78 72,0 158,-45 228,-74l323 -138c36,-15 301,-130 325,-135 0,45 0,91 0,137 0,59 -4,83 20,120 42,63 123,90 214,90 72,0 120,-29 165,-56l285 -168c25,-15 46,-27 71,-42l356 -209c25,-14 46,-28 71,-43 12,-7 22,-12 35,-20 14,-8 22,-14 36,-22 25,-15 47,-27 71,-41l72 -41c38,56 70,111 99,172 6,15 12,25 18,39 11,27 22,53 32,80 40,107 61,238 81,363 42,252 88,503 130,755 41,252 87,502 129,755 20,124 43,250 64,375 10,60 61,329 61,384 0,224 -36,226 -41,282 -20,-13 -10,-15 -52,-36 -66,-32 -124,-51 -193,-77 -87,-33 -178,-59 -270,-90 -13,-4 -22,-6 -34,-10 -22,-7 -9,-9 -29,-16 -190,-70 -595,-162 -793,-195 -100,-17 -207,-36 -312,-48 -179,-20 -488,-52 -666,-52 -22,0 -30,5 -48,4 -129,-7 -261,-4 -392,-4l-533 28c-211,12 -612,77 -817,123 -208,46 -400,98 -590,161 -167,56 -253,95 -404,157l-64 29c-23,11 -45,19 -66,31z"/>
   <path class="fil1" d="M3989 5297c154,0 197,-2 343,-61 32,-14 71,-37 100,-57 15,-10 34,-23 47,-35 77,-69 122,-120 171,-224 21,-45 47,-135 50,-188 0,-20 14,-65 -9,-65l-1311 0c-14,0 -13,9 -11,22 5,41 0,51 13,109 10,46 23,80 38,119 18,42 59,108 90,144 8,10 12,12 19,22 14,19 40,40 60,57 15,14 30,23 46,35 90,67 242,122 354,122z"/>
   <path class="fil1" d="M5588 4679c0,127 46,257 115,349 37,49 30,41 73,84 102,102 282,185 437,185 128,0 209,-4 327,-57 101,-45 190,-112 256,-200 24,-31 41,-59 59,-94 48,-96 65,-170 65,-279l-1320 0c-10,0 -12,3 -12,12z"/>
  </g>
 </g>
</svg>
