<?xml version="1.0" encoding="UTF-8"?>
<!DOCTYPE svg PUBLIC "-//W3C//DTD SVG 1.1//EN" "http://www.w3.org/Graphics/SVG/1.1/DTD/svg11.dtd">
<!-- Creator: CorelDRAW Home & Student 2014 -->
<svg xmlns="http://www.w3.org/2000/svg" xml:space="preserve" width="100mm" height="100mm" version="1.1" style="shape-rendering:geometricPrecision; text-rendering:geometricPrecision; image-rendering:optimizeQuality; fill-rule:evenodd; clip-rule:evenodd"
viewBox="0 0 10000 10000"
 xmlns:xlink="http://www.w3.org/1999/xlink">
 <defs>
  <style type="text/css">
   <![CDATA[
    .str0 {stroke:#33CC33;stroke-width:7.62;stroke-linecap:round;stroke-linejoin:round}
    .fil1 {fill:#FEFEFF}
    .fil0 {fill:url(#id0)}
   ]]>
  </style>
  <radialGradient id="id0" gradientUnits="objectBoundingBox" cx="49.9999%" cy="50%" r="50.0001%" fx="49.9999%" fy="50%">
   <stop offset="0" style="stop-color:#669933"/>
   <stop offset="1" style="stop-color:#33CC33"/>
  </radialGradient>
 </defs>
 <g id="Background_x0020_green">
  <metadata id="CorelCorpID_0Corel-Layer"/>
  <rect class="fil0 str0" width="10000" height="10000" rx="1500" ry="1500"/>
 </g>
 <g id="Ebene_x0020_1">
  <metadata id="CorelCorpID_1Corel-Layer"/>
  <g id="_212793392">
   <path class="fil1" d="M7226 8482c-558,614 -4025,496 -3889,-112 115,-521 3857,-712 3889,112zm-1138 -1799c380,-145 496,358 233,488 -152,75 -325,4 -375,-111 -94,-213 3,-324 142,-377zm-1886 12c380,-185 507,375 231,487 -170,68 -321,-7 -374,-132 -125,-299 142,-355 143,-355zm3624 -272c-945,-276 -1170,-472 -2378,-492 -2494,-40 -2792,867 -2807,288l298 -1839c52,-339 11,-283 300,-414 341,-156 1214,-614 1432,-673 68,194 110,498 223,619 239,48 756,-183 942,-300 7,8 14,21 17,27 3,7 12,20 16,28l60 175c201,342 884,-383 1348,-518 226,495 252,902 352,1497 72,421 265,1225 197,1602zm-5374 -2055l87 -50 -57 154c-25,338 -118,751 -178,1095 -29,162 -76,379 -89,539 -22,285 60,338 98,545 -302,277 -711,490 -735,1069 -22,556 418,945 721,1131 827,508 1786,744 2951,743 1100,0 2212,-258 2955,-741 790,-514 1002,-1303 235,-1991 -100,-90 -166,-123 -258,-211 149,-596 93,-568 -10,-1185 -70,-417 -140,-828 -215,-1252 -84,-469 -113,-185 429,-874 184,-234 404,-595 489,-973 293,-1291 -1317,-3345 -2347,-499 -428,-29 -838,-64 -1278,-61 -420,2 -887,77 -1277,67 -148,-495 -628,-1455 -1254,-1445 -479,8 -1159,815 -1142,1594 16,699 355,892 507,1312l-1222 1261c-101,108 -388,320 -334,486 166,158 313,51 502,-42l1422 -672z"/>
   <path class="fil1" d="M6972 4701l-1287 7c52,785 1202,825 1287,-7z"/>
   <path class="fil1" d="M3524 4701c82,817 1211,802 1285,3l-1285 -3z"/>
  </g>
 </g>
</svg>
